<svg width="54" height="54" viewBox="0 0 54 54" fill="none" xmlns="http://www.w3.org/2000/svg">
<path fill-rule="evenodd" clip-rule="evenodd" d="M1.22477 54H0L0 17.9061L0.879383 17.9453C0.977364 17.9526 1.07535 17.96 1.17333 17.96C10.7412 17.96 18.5234 10.1778 18.5258 0.612384V0L54 0V1.22477L19.7433 1.22477C19.415 11.165 11.2385 19.1554 1.22477 19.1848L1.22477 54Z" fill="#862041"/>
<path fill-rule="evenodd" clip-rule="evenodd" d="M6 3.00128C6 1.34275 4.65725 0 3.00128 0C1.34275 0 0 1.34275 0 3.00128C0 4.65725 1.34275 6 3.00128 6C4.65725 6 6 4.65725 6 3.00128Z" fill="#862041"/>
</svg>
